<svg width="2000" height="2000" viewBox="0 0 2000 2000" fill="none" xmlns="http://www.w3.org/2000/svg">
<g clip-path="url(#clip0_75_20)">
<path d="M952.093 125C1133.92 142.376 1287.54 337.853 1287.54 575.052C1287.54 744.162 1209.52 892.058 1098.74 969.34C1266.32 1024.3 1387.6 1201.89 1387.6 1404.14C1387.6 1639.11 1244.99 1832.98 1038.41 1850.15H187V125H952.093ZM387.016 1012.48L833.438 940.852C897.92 930.447 962.503 904.989 995.25 848.417C1038.31 773.762 1062.26 672.336 1062.26 575.052C1062.26 492.416 1045.78 407.255 1015.46 337.752C979.685 255.924 888.116 225.113 798.872 225.113H387.016V1012.58V1012.48ZM387.016 1750.04H897.314C977.866 1750.04 1061.65 1726.19 1101.37 1655.88C1141.7 1584.36 1163.63 1492.94 1163.63 1404.04C1163.63 1302.41 1133.41 1196.13 1079.14 1121.38C1044.17 1073.09 962.301 1025.1 871.541 1037.02L387.016 1108.85V1750.04Z" fill="#F4E9DD"/>
<path d="M1813 1750.04C1813 1819.03 1757.01 1875 1687.98 1875C1618.95 1875 1562.85 1819.03 1562.85 1750.04C1562.85 1681.04 1618.85 1625.07 1687.98 1625.07C1757.11 1625.07 1813 1681.04 1813 1750.04ZM1783.08 125V1575.07H1582.97V125H1783.08Z" fill="#F4E9DD"/>
</g>
<defs>
<clipPath id="clip0_75_20">
<rect width="1626" height="1750" fill="white" transform="translate(187 125)"/>
</clipPath>
</defs>
</svg>
